# xmcd
#
# Track frame offsets:
#  150
#  19501
#  39096
#  59983
#  82266
#  100450
#  116419
#  132517
#  150771
#  167847
#  184662
#
# Disc length: 2674 seconds
#
# Revision: 0
# Processed by: cddbd v1.4PL0 Copyright (c) Steve Scherf et al.
# Submitted via: AltoMP3_Maker 3.0
#
DISCID=8b0a700b
DTITLE=Eddy Lovette - Pochi
DYEAR=1900
DGENRE=
TTITLE0=Eddy Lovette 1
TTITLE1=Eddy Lovette 2
TTITLE2=Eddy Lovette 3
TTITLE3=Eddy Lovette 4
TTITLE4=Eddy Lovette 5
TTITLE5=Eddy Lovette 6
TTITLE6=Eddy Lovette 7
TTITLE7=Eddy Lovette 8
TTITLE8=Eddy Lovette 9
TTITLE9=Eddy Lovette 10
TTITLE10=Eddy Lovette 11
EXTD=
EXTT0=
EXTT1=
EXTT2=
EXTT3=
EXTT4=
EXTT5=
EXTT6=
EXTT7=
EXTT8=
EXTT9=
EXTT10=
PLAYORDER=
